<svg width="88" height="88" viewBox="0 0 88 88" fill="none" xmlns="http://www.w3.org/2000/svg">
<mask id="mask0_221_3" style="mask-type:alpha" maskUnits="userSpaceOnUse" x="0" y="0" width="88" height="88">
<circle cx="44" cy="44" r="44" fill="#252525"/>
</mask>
<g mask="url(#mask0_221_3)">
<path d="M40.0187 68.5522C35.1809 67.6837 31.0135 65.5044 27.3944 61.9752C22.5706 57.1557 20.2264 51.2481 20.2264 43.9142C20.2264 36.5809 22.5713 30.6734 27.3516 25.8956C31.0029 22.3342 35.1788 20.1467 40.0187 19.2762V0C29.637 1.01615 20.5981 5.21071 13.0998 12.5228C4.40726 20.9994 0 31.5603 0 43.9142C0 56.2667 4.40726 66.8283 13.0998 75.305C20.5981 82.617 29.6377 86.8122 40.0187 87.8284V68.5522Z" fill="#2742FD"/>
<path d="M88.3466 40.4254L87.5844 36.3607H47.9813V55.2444H67.3199C66.115 58.7298 64.1151 61.5732 61.2781 63.8557C57.6488 66.7749 53.2708 68.4113 47.9813 68.851V88C60.0166 87.4092 70.0088 83.2051 77.7071 75.4642C85.1871 68.3162 88.9795 58.725 88.9795 46.9558C88.9788 44.8585 88.7661 42.6614 88.3466 40.4254Z" fill="#F3970D"/>
<path d="M85.9535 0H48.093V28.6512H85.9535V0Z" fill="#F03D3F"/>
</g>
</svg>
