<svg width="447" height="88" viewBox="0 0 447 88" fill="none" xmlns="http://www.w3.org/2000/svg">
<path d="M122.8 68.68C118.629 68.68 115.071 67.9547 112.124 66.504C109.223 65.0533 106.956 62.968 105.324 60.248C103.737 57.4827 102.876 54.196 102.74 50.388C102.695 48.4387 102.672 46.3533 102.672 44.132C102.672 41.8653 102.695 39.7347 102.74 37.74C102.876 33.9773 103.737 30.7587 105.324 28.084C106.956 25.4093 109.245 23.3467 112.192 21.896C115.184 20.4453 118.72 19.72 122.8 19.72C126.109 19.72 129.011 20.1733 131.504 21.08C133.997 21.9413 136.06 23.0747 137.692 24.48C139.369 25.84 140.616 27.3133 141.432 28.9C142.293 30.4867 142.747 31.96 142.792 33.32C142.837 33.728 142.724 34.068 142.452 34.34C142.18 34.612 141.817 34.748 141.364 34.748H134.36C133.907 34.748 133.567 34.6573 133.34 34.476C133.113 34.2947 132.909 34.0227 132.728 33.66C132.365 32.708 131.799 31.7787 131.028 30.872C130.257 29.92 129.215 29.1267 127.9 28.492C126.585 27.8573 124.885 27.54 122.8 27.54C119.717 27.54 117.247 28.356 115.388 29.988C113.575 31.62 112.6 34.3173 112.464 38.08C112.328 42.024 112.328 46.0133 112.464 50.048C112.6 53.9013 113.597 56.6667 115.456 58.344C117.36 60.0213 119.853 60.86 122.936 60.86C124.976 60.86 126.789 60.4973 128.376 59.772C130.008 59.0467 131.277 57.9133 132.184 56.372C133.136 54.8307 133.612 52.8587 133.612 50.456V48.348H125.316C124.863 48.348 124.477 48.1893 124.16 47.872C123.843 47.5547 123.684 47.1467 123.684 46.648V43.044C123.684 42.5453 123.843 42.1373 124.16 41.82C124.477 41.5027 124.863 41.344 125.316 41.344H141.568C142.067 41.344 142.452 41.5027 142.724 41.82C143.041 42.1373 143.2 42.5453 143.2 43.044V50.184C143.2 53.992 142.361 57.2787 140.684 60.044C139.052 62.8093 136.695 64.94 133.612 66.436C130.575 67.932 126.971 68.68 122.8 68.68ZM162.253 68.68C157.221 68.68 153.232 67.2293 150.285 64.328C147.339 61.4267 145.752 57.3013 145.525 51.952C145.48 51.4987 145.457 50.932 145.457 50.252C145.457 49.5267 145.48 48.96 145.525 48.552C145.707 45.152 146.477 42.2053 147.837 39.712C149.243 37.2187 151.169 35.3147 153.617 34C156.065 32.64 158.944 31.96 162.253 31.96C165.925 31.96 169.008 32.7307 171.501 34.272C173.995 35.768 175.876 37.876 177.145 40.596C178.415 43.2707 179.049 46.376 179.049 49.912V51.34C179.049 51.7933 178.891 52.1787 178.573 52.496C178.256 52.8133 177.848 52.972 177.349 52.972H154.773C154.773 52.972 154.773 53.04 154.773 53.176C154.773 53.312 154.773 53.4253 154.773 53.516C154.819 55.1027 155.113 56.576 155.657 57.936C156.247 59.2507 157.085 60.316 158.173 61.132C159.307 61.948 160.644 62.356 162.185 62.356C163.455 62.356 164.52 62.1747 165.381 61.812C166.243 61.404 166.945 60.9507 167.489 60.452C168.033 59.9533 168.419 59.5453 168.645 59.228C169.053 58.684 169.371 58.3667 169.597 58.276C169.869 58.14 170.255 58.072 170.753 58.072H176.601C177.055 58.072 177.417 58.208 177.689 58.48C178.007 58.752 178.143 59.092 178.097 59.5C178.052 60.2253 177.667 61.1093 176.941 62.152C176.261 63.1947 175.264 64.2147 173.949 65.212C172.635 66.2093 170.98 67.048 168.985 67.728C167.036 68.3627 164.792 68.68 162.253 68.68ZM154.773 47.26H169.801V47.056C169.801 45.288 169.507 43.7467 168.917 42.432C168.328 41.1173 167.467 40.0747 166.333 39.304C165.2 38.5333 163.84 38.148 162.253 38.148C160.667 38.148 159.307 38.5333 158.173 39.304C157.04 40.0747 156.179 41.1173 155.589 42.432C155.045 43.7467 154.773 45.288 154.773 47.056V47.26ZM198.035 68C195.315 68 193.025 67.524 191.167 66.572C189.308 65.62 187.925 64.2147 187.019 62.356C186.112 60.452 185.659 58.0947 185.659 55.284V39.848H180.287C179.833 39.848 179.448 39.6893 179.131 39.372C178.813 39.0547 178.655 38.6693 178.655 38.216V34.272C178.655 33.8187 178.813 33.4333 179.131 33.116C179.448 32.7987 179.833 32.64 180.287 32.64H185.659V21.352C185.659 20.8987 185.795 20.5133 186.067 20.196C186.384 19.8787 186.792 19.72 187.291 19.72H192.799C193.252 19.72 193.637 19.8787 193.955 20.196C194.272 20.5133 194.431 20.8987 194.431 21.352V32.64H202.931C203.384 32.64 203.769 32.7987 204.087 33.116C204.404 33.4333 204.563 33.8187 204.563 34.272V38.216C204.563 38.6693 204.404 39.0547 204.087 39.372C203.769 39.6893 203.384 39.848 202.931 39.848H194.431V54.604C194.431 56.4627 194.748 57.9133 195.383 58.956C196.063 59.9987 197.219 60.52 198.851 60.52H203.543C203.996 60.52 204.381 60.6787 204.699 60.996C205.016 61.3133 205.175 61.6987 205.175 62.152V66.368C205.175 66.8213 205.016 67.2067 204.699 67.524C204.381 67.8413 203.996 68 203.543 68H198.035ZM213.519 80.92C213.156 80.92 212.839 80.784 212.567 80.512C212.295 80.24 212.159 79.9227 212.159 79.56C212.159 79.3787 212.159 79.1973 212.159 79.016C212.204 78.88 212.295 78.6987 212.431 78.472L217.735 65.892L204.679 35.088C204.498 34.6347 204.407 34.3173 204.407 34.136C204.452 33.728 204.611 33.388 204.883 33.116C205.155 32.7987 205.495 32.64 205.903 32.64H211.411C211.955 32.64 212.363 32.776 212.635 33.048C212.907 33.32 213.111 33.6147 213.247 33.932L222.291 56.168L231.607 33.932C231.743 33.5693 231.947 33.2747 232.219 33.048C232.491 32.776 232.899 32.64 233.443 32.64H238.883C239.246 32.64 239.563 32.776 239.835 33.048C240.152 33.32 240.311 33.6373 240.311 34C240.311 34.272 240.22 34.6347 240.039 35.088L220.795 79.628C220.614 79.9907 220.387 80.2853 220.115 80.512C219.843 80.784 219.435 80.92 218.891 80.92H213.519ZM256.472 68.68C252.845 68.68 249.785 68.0453 247.292 66.776C244.844 65.5067 242.963 63.716 241.648 61.404C240.379 59.092 239.653 56.3947 239.472 53.312C239.427 52.496 239.404 51.4987 239.404 50.32C239.404 49.1413 239.427 48.144 239.472 47.328C239.653 44.2 240.401 41.5027 241.716 39.236C243.076 36.924 244.98 35.1333 247.428 33.864C249.921 32.5947 252.936 31.96 256.472 31.96C260.008 31.96 263 32.5947 265.448 33.864C267.941 35.1333 269.845 36.924 271.16 39.236C272.52 41.5027 273.291 44.2 273.472 47.328C273.517 48.144 273.54 49.1413 273.54 50.32C273.54 51.4987 273.517 52.496 273.472 53.312C273.291 56.3947 272.543 59.092 271.228 61.404C269.959 63.716 268.077 65.5067 265.584 66.776C263.136 68.0453 260.099 68.68 256.472 68.68ZM256.472 61.948C258.875 61.948 260.733 61.2 262.048 59.704C263.363 58.1627 264.088 55.9187 264.224 52.972C264.269 52.292 264.292 51.408 264.292 50.32C264.292 49.232 264.269 48.348 264.224 47.668C264.088 44.7667 263.363 42.5453 262.048 41.004C260.733 39.4627 258.875 38.692 256.472 38.692C254.069 38.692 252.211 39.4627 250.896 41.004C249.581 42.5453 248.856 44.7667 248.72 47.668C248.675 48.348 248.652 49.232 248.652 50.32C248.652 51.408 248.675 52.292 248.72 52.972C248.856 55.9187 249.581 58.1627 250.896 59.704C252.211 61.2 254.069 61.948 256.472 61.948ZM292.634 68.68C289.008 68.68 285.948 68.0453 283.454 66.776C281.006 65.5067 279.125 63.716 277.81 61.404C276.541 59.092 275.816 56.3947 275.634 53.312C275.589 52.496 275.566 51.4987 275.566 50.32C275.566 49.1413 275.589 48.144 275.634 47.328C275.816 44.2 276.564 41.5027 277.878 39.236C279.238 36.924 281.142 35.1333 283.59 33.864C286.084 32.5947 289.098 31.96 292.634 31.96C296.17 31.96 299.162 32.5947 301.61 33.864C304.104 35.1333 306.008 36.924 307.322 39.236C308.682 41.5027 309.453 44.2 309.634 47.328C309.68 48.144 309.702 49.1413 309.702 50.32C309.702 51.4987 309.68 52.496 309.634 53.312C309.453 56.3947 308.705 59.092 307.39 61.404C306.121 63.716 304.24 65.5067 301.746 66.776C299.298 68.0453 296.261 68.68 292.634 68.68ZM292.634 61.948C295.037 61.948 296.896 61.2 298.21 59.704C299.525 58.1627 300.25 55.9187 300.386 52.972C300.432 52.292 300.454 51.408 300.454 50.32C300.454 49.232 300.432 48.348 300.386 47.668C300.25 44.7667 299.525 42.5453 298.21 41.004C296.896 39.4627 295.037 38.692 292.634 38.692C290.232 38.692 288.373 39.4627 287.058 41.004C285.744 42.5453 285.018 44.7667 284.882 47.668C284.837 48.348 284.814 49.232 284.814 50.32C284.814 51.408 284.837 52.292 284.882 52.972C285.018 55.9187 285.744 58.1627 287.058 59.704C288.373 61.2 290.232 61.948 292.634 61.948ZM328.871 68C326.151 68 323.861 67.524 322.003 66.572C320.144 65.62 318.761 64.2147 317.855 62.356C316.948 60.452 316.495 58.0947 316.495 55.284V39.848H311.123C310.669 39.848 310.284 39.6893 309.967 39.372C309.649 39.0547 309.491 38.6693 309.491 38.216V34.272C309.491 33.8187 309.649 33.4333 309.967 33.116C310.284 32.7987 310.669 32.64 311.123 32.64H316.495V21.352C316.495 20.8987 316.631 20.5133 316.903 20.196C317.22 19.8787 317.628 19.72 318.127 19.72H323.635C324.088 19.72 324.473 19.8787 324.791 20.196C325.108 20.5133 325.267 20.8987 325.267 21.352V32.64H333.767C334.22 32.64 334.605 32.7987 334.923 33.116C335.24 33.4333 335.399 33.8187 335.399 34.272V38.216C335.399 38.6693 335.24 39.0547 334.923 39.372C334.605 39.6893 334.22 39.848 333.767 39.848H325.267V54.604C325.267 56.4627 325.584 57.9133 326.219 58.956C326.899 59.9987 328.055 60.52 329.687 60.52H334.379C334.832 60.52 335.217 60.6787 335.535 60.996C335.852 61.3133 336.011 61.6987 336.011 62.152V66.368C336.011 66.8213 335.852 67.2067 335.535 67.524C335.217 67.8413 334.832 68 334.379 68H328.871ZM353.195 68.68C348.163 68.68 344.174 67.2293 341.227 64.328C338.28 61.4267 336.694 57.3013 336.467 51.952C336.422 51.4987 336.399 50.932 336.399 50.252C336.399 49.5267 336.422 48.96 336.467 48.552C336.648 45.152 337.419 42.2053 338.779 39.712C340.184 37.2187 342.111 35.3147 344.559 34C347.007 32.64 349.886 31.96 353.195 31.96C356.867 31.96 359.95 32.7307 362.443 34.272C364.936 35.768 366.818 37.876 368.087 40.596C369.356 43.2707 369.991 46.376 369.991 49.912V51.34C369.991 51.7933 369.832 52.1787 369.515 52.496C369.198 52.8133 368.79 52.972 368.291 52.972H345.715C345.715 52.972 345.715 53.04 345.715 53.176C345.715 53.312 345.715 53.4253 345.715 53.516C345.76 55.1027 346.055 56.576 346.599 57.936C347.188 59.2507 348.027 60.316 349.115 61.132C350.248 61.948 351.586 62.356 353.127 62.356C354.396 62.356 355.462 62.1747 356.323 61.812C357.184 61.404 357.887 60.9507 358.431 60.452C358.975 59.9533 359.36 59.5453 359.587 59.228C359.995 58.684 360.312 58.3667 360.539 58.276C360.811 58.14 361.196 58.072 361.695 58.072H367.543C367.996 58.072 368.359 58.208 368.631 58.48C368.948 58.752 369.084 59.092 369.039 59.5C368.994 60.2253 368.608 61.1093 367.883 62.152C367.203 63.1947 366.206 64.2147 364.891 65.212C363.576 66.2093 361.922 67.048 359.927 67.728C357.978 68.3627 355.734 68.68 353.195 68.68ZM345.715 47.26H360.743V47.056C360.743 45.288 360.448 43.7467 359.859 42.432C359.27 41.1173 358.408 40.0747 357.275 39.304C356.142 38.5333 354.782 38.148 353.195 38.148C351.608 38.148 350.248 38.5333 349.115 39.304C347.982 40.0747 347.12 41.1173 346.531 42.432C345.987 43.7467 345.715 45.288 345.715 47.056V47.26ZM388.429 68.68C385.165 68.68 382.287 68.068 379.793 66.844C377.345 65.62 375.419 63.852 374.013 61.54C372.653 59.1827 371.905 56.3493 371.769 53.04C371.724 52.36 371.701 51.476 371.701 50.388C371.701 49.2547 371.724 48.3253 371.769 47.6C371.905 44.2907 372.653 41.48 374.013 39.168C375.419 36.8107 377.345 35.02 379.793 33.796C382.287 32.572 385.165 31.96 388.429 31.96C391.331 31.96 393.801 32.368 395.841 33.184C397.881 34 399.559 35.02 400.873 36.244C402.188 37.468 403.163 38.76 403.797 40.12C404.477 41.4347 404.84 42.636 404.885 43.724C404.931 44.2227 404.772 44.6307 404.409 44.948C404.092 45.22 403.707 45.356 403.253 45.356H397.269C396.816 45.356 396.453 45.2427 396.181 45.016C395.955 44.7893 395.728 44.4493 395.501 43.996C394.821 42.1827 393.915 40.9133 392.781 40.188C391.693 39.4173 390.288 39.032 388.565 39.032C386.299 39.032 384.485 39.7573 383.125 41.208C381.811 42.6133 381.108 44.8573 381.017 47.94C380.927 49.6627 380.927 51.2493 381.017 52.7C381.108 55.828 381.811 58.0947 383.125 59.5C384.485 60.9053 386.299 61.608 388.565 61.608C390.333 61.608 391.761 61.2453 392.849 60.52C393.937 59.7493 394.821 58.4573 395.501 56.644C395.728 56.1907 395.955 55.8507 396.181 55.624C396.453 55.3973 396.816 55.284 397.269 55.284H403.253C403.707 55.284 404.092 55.4427 404.409 55.76C404.772 56.032 404.931 56.4173 404.885 56.916C404.84 57.732 404.613 58.6613 404.205 59.704C403.843 60.7013 403.231 61.744 402.369 62.832C401.553 63.8747 400.511 64.8493 399.241 65.756C397.972 66.6173 396.431 67.32 394.617 67.864C392.849 68.408 390.787 68.68 388.429 68.68ZM409.597 68C409.144 68 408.758 67.8413 408.441 67.524C408.124 67.2067 407.965 66.8213 407.965 66.368V21.352C407.965 20.8987 408.124 20.5133 408.441 20.196C408.758 19.8787 409.144 19.72 409.597 19.72H415.649C416.148 19.72 416.533 19.8787 416.805 20.196C417.122 20.5133 417.281 20.8987 417.281 21.352V36.856C418.505 35.4053 420.001 34.2267 421.769 33.32C423.537 32.4133 425.713 31.96 428.297 31.96C431.062 31.96 433.465 32.5947 435.505 33.864C437.59 35.088 439.2 36.8333 440.333 39.1C441.466 41.3667 442.033 44.0867 442.033 47.26V66.368C442.033 66.8213 441.874 67.2067 441.557 67.524C441.24 67.8413 440.854 68 440.401 68H434.281C433.828 68 433.442 67.8413 433.125 67.524C432.808 67.2067 432.649 66.8213 432.649 66.368V47.668C432.649 45.0387 431.992 42.976 430.677 41.48C429.408 39.984 427.549 39.236 425.101 39.236C422.744 39.236 420.84 39.984 419.389 41.48C417.984 42.976 417.281 45.0387 417.281 47.668V66.368C417.281 66.8213 417.122 67.2067 416.805 67.524C416.533 67.8413 416.148 68 415.649 68H409.597Z" fill="#252525"/>
<mask id="mask0_221_8" style="mask-type:alpha" maskUnits="userSpaceOnUse" x="0" y="0" width="88" height="88">
<circle cx="44" cy="44" r="44" fill="#252525"/>
</mask>
<g mask="url(#mask0_221_8)">
<path d="M40.0187 68.5522C35.1809 67.6837 31.0135 65.5044 27.3944 61.9752C22.5706 57.1557 20.2264 51.2481 20.2264 43.9142C20.2264 36.5809 22.5713 30.6734 27.3516 25.8956C31.0029 22.3342 35.1788 20.1467 40.0187 19.2762V0C29.637 1.01615 20.5981 5.21071 13.0998 12.5228C4.40726 20.9994 0 31.5603 0 43.9142C0 56.2667 4.40726 66.8283 13.0998 75.305C20.5981 82.617 29.6377 86.8122 40.0187 87.8284V68.5522Z" fill="#2742FD"/>
<path d="M88.3466 40.4254L87.5844 36.3607H47.9813V55.2444H67.3199C66.115 58.7298 64.1151 61.5732 61.2781 63.8557C57.6488 66.7749 53.2708 68.4113 47.9813 68.851V88C60.0166 87.4092 70.0088 83.2051 77.7071 75.4642C85.1871 68.3162 88.9795 58.725 88.9795 46.9558C88.9788 44.8585 88.7661 42.6614 88.3466 40.4254Z" fill="#F3970D"/>
<path d="M85.9535 0H48.093V28.6512H85.9535V0Z" fill="#F03D3F"/>
</g>
</svg>
