<svg width="500" height="374" viewBox="0 0 500 374" fill="none" xmlns="http://www.w3.org/2000/svg">
<path d="M500 328.398H0V328.648H500V328.398Z" fill="#EBEBEB"/>
<path d="M237.014 283.8H43.915C40.768 283.8 38.207 281.239 38.207 278.092V6.66003C38.207 3.51303 40.768 0.952026 43.915 0.952026H237.014C240.16 0.952026 242.721 3.51303 242.721 6.66003V278.092C242.721 281.239 240.16 283.8 237.014 283.8ZM43.915 1.20303C40.905 1.20303 38.457 3.65103 38.457 6.66103V278.093C38.457 281.103 40.905 283.551 43.915 283.551H237.014C240.023 283.551 242.471 281.103 242.471 278.093V6.66003C242.471 3.65103 240.023 1.20203 237.014 1.20203L43.915 1.20303Z" fill="#EBEBEB"/>
<path d="M453.31 283.8H260.212C257.065 283.8 254.505 281.239 254.505 278.092V6.66003C254.505 3.51303 257.066 0.952026 260.212 0.952026H453.31C456.458 0.952026 459.018 3.51303 459.018 6.66003V278.092C459.019 281.239 456.458 283.8 453.31 283.8ZM260.212 1.20303C257.203 1.20303 254.755 3.65103 254.755 6.66103V278.093C254.755 281.103 257.203 283.551 260.212 283.551H453.31C456.32 283.551 458.768 281.103 458.768 278.093V6.66003C458.768 3.65103 456.32 1.20203 453.31 1.20203L260.212 1.20303Z" fill="#EBEBEB"/>
<path d="M449.901 337.922H418.333V338.172H449.901V337.922Z" fill="#EBEBEB"/>
<path d="M335.334 335.208H301.926V335.458H335.334V335.208Z" fill="#EBEBEB"/>
<path d="M459.019 347.208H396.586V347.458H459.019V347.208Z" fill="#EBEBEB"/>
<path d="M71.694 345.528H52.459V345.778H71.694V345.528Z" fill="#EBEBEB"/>
<path d="M110.889 345.528H80.597V345.778H110.889V345.528Z" fill="#EBEBEB"/>
<path d="M244.134 341.306H189.578V341.556H244.134V341.306Z" fill="#EBEBEB"/>
<path d="M277.248 193.832L425.632 193.832V37.2502L277.248 37.2502V193.832Z" fill="#E6E6E6"/>
<path d="M261.347 32.183H435.238C436.052 32.183 436.711 32.843 436.711 33.656C436.711 34.469 436.052 35.129 435.238 35.129H261.347C260.533 35.129 259.874 34.469 259.874 33.656C259.874 32.843 260.533 32.183 261.347 32.183Z" fill="#E6E6E6"/>
<path d="M270.952 193.832L422.69 193.832V37.2502L270.952 37.2502V193.832Z" fill="#F0F0F0"/>
<path d="M277.248 199.683L425.632 199.683V193.833L277.248 193.833V199.683Z" fill="#E6E6E6"/>
<path d="M260.463 199.683L412.201 199.683V193.833L260.463 193.833V199.683Z" fill="#F0F0F0"/>
<path d="M413.876 185.017V46.0653L279.767 46.0653V185.017L413.876 185.017Z" fill="#FAFAFA"/>
<path d="M383.432 185.018L331.696 46.0649H307.273L359.009 185.018H383.432Z" fill="white"/>
<path d="M353.763 185.018L302.027 46.0649H292.506L344.242 185.018H353.763Z" fill="white"/>
<path d="M280.886 185.017V46.0649H279.767V185.017H280.886Z" fill="#E6E6E6"/>
<g opacity="0.6">
<path d="M314.619 171.181L264.119 171.184L266.988 29.352L317.488 29.349L314.619 171.181Z" fill="#F0F0F0"/>
<path d="M334.292 171.18L294.947 171.183L297.816 29.35L337.16 29.348L334.292 171.18Z" fill="#E6E6E6"/>
<path d="M365.12 171.178L314.619 171.181L317.488 29.3491L367.989 29.3461L365.12 171.178Z" fill="#F0F0F0"/>
<path d="M384.792 171.177L345.448 171.18L348.317 29.347L387.661 29.345L384.792 171.177Z" fill="#E6E6E6"/>
<path d="M415.621 171.175L365.12 171.178L367.989 29.346L418.489 29.343L415.621 171.175Z" fill="#F0F0F0"/>
</g>
<path d="M220.633 172.034L220.633 21.3669L85.6329 21.3669L85.6329 172.034L220.633 172.034Z" fill="#EBEBEB"/>
<path d="M221.855 172.034L221.855 21.3666H220.633L220.633 172.034H221.855Z" fill="#E0E0E0"/>
<path d="M95.6324 162.034H210.632L210.632 31.3666H95.6324L95.6324 162.034Z" fill="#F5F5F5"/>
<path d="M157.384 166.367H189.769V121.034H157.384V166.367Z" fill="white"/>
<path d="M118.419 170.327H150.804L153.133 124.993H120.748L118.419 170.327Z" fill="white"/>
<path d="M90.21 114.188H122.595L124.924 68.854H92.539L90.21 114.188Z" fill="white"/>
<path d="M189.323 72.8763L214.226 73.9681L215.754 39.108L190.851 38.0162L189.323 72.8763Z" fill="white"/>
<path d="M90.2119 58.8724L115.115 59.9642L116.643 25.1041L91.7403 24.0123L90.2119 58.8724Z" fill="white"/>
<path d="M215.226 79.4161L190.301 79.087L189.84 113.979L214.766 114.308L215.226 79.4161Z" fill="white"/>
<path d="M132.053 112.421L184.856 110.895L182.719 36.9802L129.916 38.5068L132.053 112.421Z" fill="white"/>
<path d="M117.967 328.398L117.967 189.999H62.4524L62.4524 328.398H117.967Z" fill="#F0F0F0"/>
<path d="M114.92 234.21L114.92 193.47H65.5003V234.21H114.92Z" fill="#E6E6E6"/>
<path d="M114.92 278.607L114.92 237.867H65.5002V278.607H114.92Z" fill="#E6E6E6"/>
<path d="M114.92 323.005L114.92 282.265H65.5003V323.005H114.92Z" fill="#E6E6E6"/>
<path d="M84.9384 234.211L84.9384 193.471H65.4994V234.211H84.9384Z" fill="#E0E0E0"/>
<path d="M84.9384 278.608L84.9384 237.868H65.4994V278.608H84.9384Z" fill="#E0E0E0"/>
<path d="M84.9385 323.005L84.9385 282.265H65.4995V323.005H84.9385Z" fill="#E0E0E0"/>
<path d="M133.041 328.398L133.041 189.999H117.967L117.967 328.398H133.041Z" fill="#F5F5F5"/>
<path d="M177.318 328.398L177.318 189.999H121.803L121.803 328.398H177.318Z" fill="#F0F0F0"/>
<path d="M174.271 234.21V193.47H124.851V234.21H174.271Z" fill="#E6E6E6"/>
<path d="M174.271 278.607V237.867H124.851V278.607H174.271Z" fill="#E6E6E6"/>
<path d="M174.271 323.004V282.264H124.851V323.004H174.271Z" fill="#E6E6E6"/>
<path d="M144.289 234.21V193.47H124.85V234.21H144.289Z" fill="#E0E0E0"/>
<path d="M144.289 278.607V237.867H124.85V278.607H144.289Z" fill="#E0E0E0"/>
<path d="M144.289 323.004V282.264H124.85V323.004H144.289Z" fill="#E0E0E0"/>
<path d="M192.392 328.398L192.392 189.999H177.318L177.318 328.398H192.392Z" fill="#F5F5F5"/>
<path d="M106.026 270.603C106.026 275.024 100.312 278.608 93.264 278.608C86.216 278.608 80.502 275.024 80.502 270.603H106.026Z" fill="#F0F0F0"/>
<path d="M106.026 264.619C106.026 269.04 100.312 272.624 93.264 272.624C86.216 272.624 80.502 269.04 80.502 264.619H106.026Z" fill="#F0F0F0"/>
<path d="M166.997 226.206C166.997 230.627 159.853 234.211 151.041 234.211C142.229 234.211 135.085 230.627 135.085 226.206H166.997Z" fill="#FAFAFA"/>
<path d="M166.997 220.222C166.997 224.643 159.853 228.227 151.041 228.227C142.229 228.227 135.085 224.643 135.085 220.222H166.997Z" fill="#FAFAFA"/>
<path d="M128.205 323.005H168.333V288.138H128.205V323.005Z" fill="#F0F0F0"/>
<path d="M174.271 288.138H168.333V323.005H174.271V288.138Z" fill="#E0E0E0"/>
<path d="M68.8542 234.211H108.982V199.344H68.8542V234.211Z" fill="#F0F0F0"/>
<path d="M114.92 199.344H108.982V234.211H114.92V199.344Z" fill="#E0E0E0"/>
<path d="M267.623 328.397H275.409V255.142H267.623V328.397Z" fill="#E6E6E6"/>
<path d="M265.54 328.397H270.126V255.142H265.54V328.397Z" fill="#F0F0F0"/>
<path d="M374.692 255.142H264.119V263.256H374.692V255.142Z" fill="#F0F0F0"/>
<path d="M424.133 328.397H431.919V255.142H424.133V328.397Z" fill="#E6E6E6"/>
<path d="M422.674 328.397H427.26V255.142H422.674V328.397Z" fill="#F0F0F0"/>
<path d="M433.311 255.142H378.024V263.256H433.311V255.142Z" fill="#E6E6E6"/>
<path d="M375.356 328.397H383.142V255.142H375.356V328.397Z" fill="#E6E6E6"/>
<path d="M373.271 328.397H377.857V255.142H373.271V328.397Z" fill="#F0F0F0"/>
<path d="M250 373.561C357.082 373.561 443.889 368.492 443.889 362.238C443.889 355.985 357.082 350.915 250 350.915C142.918 350.915 56.111 355.985 56.111 362.238C56.111 368.492 142.918 373.561 250 373.561Z" fill="#F5F5F5"/>
<path d="M298.811 351.635L284.666 350.003V268.893H272.551V350.003L258.407 351.635L257.179 355.657H300.038L298.811 351.635Z" fill="#263238"/>
<path opacity="0.4" d="M298.811 351.635L284.666 350.003V268.893H272.551V350.003L258.407 351.635L257.179 355.657H300.038L298.811 351.635Z" fill="#407BFF"/>
<path d="M274.95 159.747C295.947 159.747 316.944 159.747 337.941 159.747C327.144 193.909 321.657 228.71 321.682 262.872C300.685 262.872 279.688 262.872 258.691 262.872C258.666 228.71 264.153 193.909 274.95 159.747Z" fill="#407BFF"/>
<path opacity="0.3" d="M274.95 159.747C295.947 159.747 316.944 159.747 337.941 159.747C327.144 193.909 321.657 228.71 321.682 262.872C300.685 262.872 279.688 262.872 258.691 262.872C258.666 228.71 264.153 193.909 274.95 159.747Z" fill="black"/>
<path d="M271.168 159.747C292.165 159.747 313.162 159.747 334.16 159.747C323.363 193.909 317.876 228.71 317.901 262.872C296.904 262.872 275.907 262.872 254.91 262.872C254.885 228.71 260.371 193.909 271.168 159.747Z" fill="#407BFF"/>
<path d="M307.271 272.548H218.091C221.837 264.392 228.656 259.388 236.022 259.388H301.226L307.271 272.548Z" fill="#407BFF"/>
<path d="M325.386 272.548H282.326C286.072 264.392 292.891 259.388 300.257 259.388H315.496C322.864 259.389 326.511 263.644 325.386 272.548Z" fill="#407BFF"/>
<path opacity="0.3" d="M325.386 272.548H282.326C286.072 264.392 292.891 259.388 300.257 259.388H315.496C322.864 259.389 326.511 263.644 325.386 272.548Z" fill="black"/>
<path d="M237.446 347.311L229.377 348.371L224.127 330.09L232.196 329.03L237.446 347.311Z" fill="#FFC3BD"/>
<path d="M228.365 346.262L237.421 345.072C237.75 345.029 238.029 345.225 238.091 345.544L239.471 352.651C239.614 353.388 239.009 354.183 238.248 354.27C235.088 354.63 233.558 354.642 229.575 355.165C227.125 355.487 218.699 356.664 215.287 356.682C211.949 356.701 211.953 353.326 213.398 353.013C219.875 351.607 225.001 349.025 227.042 346.939C227.41 346.564 227.883 346.325 228.365 346.262Z" fill="#263238"/>
<path opacity="0.2" d="M232.199 329.035L224.127 330.095L226.837 339.517L234.909 338.457L232.199 329.035Z" fill="black"/>
<path d="M263.924 230.102C263.924 230.102 200.665 234.631 203.218 257.804C206.887 291.113 221.258 334.85 221.258 334.85L235.934 332.329C235.934 332.329 229.75 291.978 226.487 266.024C242.272 259.48 285.067 265.746 290.094 252.118C294.206 240.969 291.983 230.102 291.983 230.102H263.924Z" fill="#263238"/>
<path opacity="0.3" d="M233.103 249.394C233.103 249.394 234.638 256.281 235.691 263.76C235.647 263.771 235.592 263.771 235.548 263.782C235 263.859 234.451 263.947 233.925 264.034C233.651 264.089 233.366 264.133 233.103 264.188C232.785 264.243 232.478 264.309 232.171 264.364C230.822 264.638 229.561 264.956 228.41 265.329C228.114 265.417 227.84 265.515 227.566 265.614C227.193 265.735 226.831 265.877 226.491 266.02C226.864 268.992 228.141 272.929 228.152 276.35C214.077 259.724 225.678 249.394 233.103 249.394Z" fill="black"/>
<path d="M238.189 335.664L220.981 337.924L218.657 331.733L235.893 327.873L238.189 335.664Z" fill="#407BFF"/>
<path d="M225.692 348.041C226.436 347.943 227.24 347.682 227.802 347.471C227.872 347.445 227.92 347.38 227.924 347.305C227.928 347.23 227.888 347.16 227.822 347.126C227.541 346.981 225.054 345.721 224.121 346.237C223.904 346.356 223.777 346.56 223.753 346.826C223.713 347.265 223.838 347.598 224.122 347.814C224.485 348.09 225.068 348.123 225.692 348.041ZM227.25 347.267C225.846 347.744 224.778 347.839 224.353 347.514C224.177 347.38 224.104 347.166 224.132 346.86C224.145 346.719 224.2 346.626 224.305 346.569C224.807 346.291 226.237 346.794 227.25 347.267Z" fill="#407BFF"/>
<path d="M227.761 347.481C227.79 347.477 227.819 347.466 227.844 347.449C227.897 347.412 227.928 347.35 227.925 347.284C227.92 347.185 227.797 344.843 226.88 344.166C226.633 343.984 226.353 343.931 226.049 344.008C225.684 344.101 225.468 344.335 225.442 344.666C225.372 345.57 226.795 347.094 227.66 347.467C227.693 347.482 227.727 347.486 227.761 347.481ZM226.23 344.359C226.386 344.339 226.526 344.375 226.655 344.471C227.202 344.874 227.442 346.194 227.521 346.962C226.742 346.462 225.774 345.289 225.821 344.696C225.829 344.583 225.874 344.444 226.143 344.376C226.173 344.368 226.202 344.363 226.23 344.359Z" fill="#407BFF"/>
<path d="M272.681 167.55C271.975 170.686 271.135 173.606 270.284 176.607C269.406 179.581 268.467 182.539 267.435 185.474C266.419 188.414 265.302 191.334 264.107 194.235C262.917 197.141 261.587 200.016 260.158 202.874L259.904 203.381L259.799 203.529C258.717 205.055 257.66 205.948 256.645 206.709C255.627 207.459 254.652 208.034 253.689 208.556C251.767 209.6 249.869 210.342 247.988 211.029C246.097 211.688 244.215 212.244 242.319 212.711C240.409 213.171 238.547 213.563 236.547 213.83L234.694 208.014L239.437 205.347C241.009 204.453 242.563 203.562 244.044 202.636C245.532 201.735 246.953 200.767 248.185 199.826C248.797 199.356 249.362 198.873 249.775 198.43C250.185 197.999 250.48 197.578 250.422 197.542L250.063 198.197C251.146 195.536 252.147 192.812 253.117 190.053C254.056 187.279 254.97 184.485 255.84 181.663C256.693 178.836 257.542 176.001 258.353 173.151C259.185 170.327 259.949 167.4 260.704 164.652L272.681 167.55Z" fill="#FFC3BD"/>
<path d="M259.46 165.383C252.849 172.97 248.477 183.585 248.477 183.585L265.759 193.995C270.75 187.913 276.975 171.821 277.231 166.39C277.624 158.049 266.583 157.208 259.46 165.383Z" fill="#407BFF"/>
<path opacity="0.5" d="M259.46 165.383C252.849 172.97 248.477 183.585 248.477 183.585L265.759 193.995C270.75 187.913 276.975 171.821 277.231 166.39C277.624 158.049 266.583 157.208 259.46 165.383Z" fill="white"/>
<path opacity="0.5" d="M265.55 173.123C261.778 176.292 259.102 182.883 257.928 189.276L265.758 193.992C268.225 190.987 271 185.537 273.204 180.119C271.439 174.746 268.884 170.316 265.55 173.123Z" fill="#407BFF"/>
<path d="M263.106 352.177H254.976L251.252 333.349H259.382L263.106 352.177Z" fill="#FFC3BD"/>
<path d="M254.724 350.2H263.858C264.19 350.2 264.441 350.431 264.461 350.755L264.904 357.982C264.95 358.731 264.247 359.441 263.481 359.428C260.301 359.373 258.782 359.186 254.765 359.186C252.294 359.186 243.911 359.443 240.499 359.443C237.161 359.443 237.184 356.069 238.63 355.763C245.115 354.393 251.028 352.503 253.324 350.7C253.737 350.375 254.237 350.2 254.724 350.2Z" fill="#263238"/>
<path opacity="0.2" d="M259.385 333.354H251.251L253.175 343.059H261.308L259.385 333.354Z" fill="black"/>
<path d="M279.852 230.102C279.852 230.102 226.247 234.629 227.566 257.906C229.01 283.396 249.646 340.716 249.646 340.716H264.537C264.537 340.716 257.804 288.855 254.542 262.902C269.65 262.902 300.996 265.747 306.023 252.118C310.135 240.969 307.455 230.517 307.455 230.517L279.852 230.102Z" fill="#263238"/>
<path d="M265.389 340.953L247.527 341.763L246.152 334.086L264.842 334.154L265.389 340.953Z" fill="#407BFF"/>
<path d="M251.842 351.616C252.593 351.616 253.424 351.461 254.009 351.325C254.082 351.308 254.138 351.25 254.152 351.177C254.166 351.103 254.135 351.029 254.074 350.986C253.814 350.805 251.513 349.232 250.52 349.622C250.29 349.712 250.137 349.897 250.079 350.159C249.983 350.589 250.062 350.935 250.316 351.187C250.639 351.507 251.212 351.616 251.842 351.616ZM253.487 351.051C252.033 351.341 250.962 351.296 250.582 350.918C250.425 350.762 250.381 350.541 250.448 350.241C250.479 350.103 250.546 350.018 250.657 349.975C251.192 349.765 252.544 350.45 253.487 351.051Z" fill="#407BFF"/>
<path d="M253.965 351.33C253.994 351.33 254.024 351.323 254.052 351.309C254.11 351.279 254.148 351.222 254.154 351.156C254.162 351.057 254.345 348.718 253.524 347.928C253.303 347.715 253.032 347.626 252.721 347.664C252.347 347.709 252.103 347.913 252.034 348.237C251.846 349.124 253.059 350.821 253.869 351.303C253.899 351.322 253.932 351.33 253.965 351.33ZM252.854 348.035C253.011 348.035 253.145 348.09 253.261 348.202C253.751 348.673 253.817 350.013 253.795 350.785C253.088 350.188 252.281 348.899 252.404 348.317C252.427 348.206 252.49 348.075 252.765 348.041C252.797 348.036 252.826 348.035 252.854 348.035Z" fill="#407BFF"/>
<path d="M238.538 208.218L229.451 205.939L230.087 215.659C230.087 215.659 239.068 215.683 239.855 213.012L238.538 208.218Z" fill="#FFC3BD"/>
<path d="M222.539 210.681L224.682 216.781L230.087 215.66L229.451 205.939L222.539 210.681Z" fill="#FFC3BD"/>
<path d="M263.973 230.518H307.455C307.762 226.636 306.863 214.003 307.532 197.915C307.982 187.113 309.144 174.754 311.853 162.45C312.051 161.572 312.248 160.706 312.456 159.829C312.456 159.829 310.252 159.379 307.094 158.919C304.473 158.535 301.183 158.14 297.959 157.987C292.41 157.724 284.372 157.549 279.481 157.987C276.641 158.251 273.866 158.722 271.651 159.15C268.822 159.72 267.155 160.208 267.155 160.208C267.155 160.208 256.439 184.799 263.973 230.518Z" fill="#407BFF"/>
<path opacity="0.5" d="M263.973 230.518H307.455C307.762 226.636 306.863 214.003 307.532 197.915C307.982 187.113 309.144 174.754 311.853 162.45C312.051 161.572 312.248 160.706 312.456 159.829C312.456 159.829 310.252 159.379 307.094 158.919C304.473 158.535 301.183 158.14 297.959 157.987C292.41 157.724 284.372 157.549 279.481 157.987C276.641 158.251 273.866 158.722 271.651 159.15C268.822 159.72 267.155 160.208 267.155 160.208C267.155 160.208 256.439 184.799 263.973 230.518Z" fill="white"/>
<path opacity="0.5" d="M307.531 197.918C307.981 187.116 309.143 174.757 311.852 162.453C308.946 162.201 303.978 162.486 303.156 167.18C302.267 172.224 302.205 184.006 307.531 197.918Z" fill="#407BFF"/>
<path d="M315.222 165.456C315.635 166.227 315.928 166.809 316.258 167.477C316.577 168.125 316.867 168.778 317.159 169.428C317.738 170.731 318.288 172.041 318.811 173.363C319.842 176.011 320.752 178.714 321.501 181.486C322.261 184.254 322.874 187.089 323.285 189.995C323.707 192.901 323.912 195.883 323.813 198.934L323.806 199.219L323.775 199.785C323.753 200.189 323.684 200.583 323.61 200.977C323.448 201.754 323.196 202.494 322.887 203.142C322.267 204.452 321.48 205.449 320.702 206.233C319.133 207.782 317.6 208.686 316.134 209.453C313.199 210.955 310.383 211.753 307.599 212.47C304.809 213.137 302.053 213.615 299.295 213.956C296.523 214.289 293.821 214.517 290.979 214.556L290.157 208.507C295.099 207.047 300.174 205.501 304.773 203.615C307.065 202.694 309.281 201.612 310.996 200.476C311.841 199.919 312.536 199.293 312.801 198.893C312.928 198.699 312.931 198.598 312.857 198.688C312.826 198.73 312.77 198.827 312.736 198.949C312.71 199.012 312.707 199.078 312.688 199.148C312.681 199.166 312.682 199.256 312.679 199.214L312.664 198.998C312.396 194.409 311.273 189.637 309.786 184.935C309.025 182.585 308.183 180.238 307.255 177.919C306.799 176.757 306.318 175.603 305.816 174.465L305.051 172.775L304.32 171.202L315.222 165.456Z" fill="#FFC3BD"/>
<path d="M312.455 159.829C304.54 157.329 299.474 163.658 301.664 174.634C303.854 185.61 306.67 189.693 306.67 189.693L325.19 187.072C323.667 176.312 320.56 162.389 312.455 159.829Z" fill="#407BFF"/>
<path opacity="0.5" d="M312.455 159.829C304.54 157.329 299.474 163.658 301.664 174.634C303.854 185.61 306.67 189.693 306.67 189.693L325.19 187.072C323.667 176.312 320.56 162.389 312.455 159.829Z" fill="white"/>
<path d="M297.563 137.26L292.617 141.362L285.884 146.954C286.081 147.864 286.235 148.786 286.312 149.674C286.674 153.325 285.731 156.649 280.357 157.92C280.357 157.92 275.075 162.859 285.643 163.008C296.212 163.156 298.67 158.03 298.67 158.03C294.646 154.061 296.192 143.215 297.563 137.26Z" fill="#FFC3BD"/>
<path d="M297.924 155.071C297.924 155.071 292.395 160.844 285.115 163.011C287.925 163.519 289.837 166.101 289.882 168.596C295.111 167.042 301.318 159.179 301.152 157.719C299.57 156.624 297.924 155.071 297.924 155.071Z" fill="white"/>
<path d="M282.773 156.698C282.773 156.698 277.835 160.844 285.115 163.011C282.305 163.519 280.424 164.964 279.464 168.048C275.515 163.342 277.784 158.571 278.655 157.387C280.573 157.226 282.773 156.698 282.773 156.698Z" fill="white"/>
<path opacity="0.2" d="M285.884 146.954C286.082 147.864 286.235 148.786 286.312 149.674C288.823 149.169 292.179 146.493 292.53 143.927C292.662 142.962 292.684 142.03 292.618 141.361L285.884 146.954Z" fill="black"/>
<path d="M279.434 118.994C276.107 121.735 276.714 132.376 279.896 131.398C283.078 130.42 284.909 114.484 279.434 118.994Z" fill="#263238"/>
<path d="M299.602 128.695C297.883 136.601 297.279 141.301 292.609 144.909C285.585 150.336 276.276 145.515 275.594 137.338C274.98 129.978 277.895 118.286 286.212 116.047C294.406 113.842 301.322 120.789 299.602 128.695Z" fill="#FFC3BD"/>
<path d="M296.966 134.119C295.687 132.544 295.595 128.523 296.509 127.244C295.138 126.147 293.772 122.631 294.834 121.259C292.151 121.076 278.282 124.411 275.515 114.449C276.952 114.906 279.863 114.449 279.863 114.449C279.863 114.449 277.043 109.758 282.039 108.357C282.77 110.733 288.801 110.973 291.787 110.855C297.923 110.611 304.912 113.164 302.083 117.922C306.593 119.872 307.324 128.566 296.966 134.119Z" fill="#263238"/>
<path d="M301.018 117.602C301.018 117.602 304.079 118.242 303.485 114.335C305.976 116.483 304.376 120.39 301.018 117.602Z" fill="#263238"/>
<path d="M300.889 136.025C299.729 137.548 298.033 138.452 296.547 138.714C294.312 139.108 293.633 137.052 294.621 135.055C295.51 133.258 297.745 130.888 299.812 131.4C301.848 131.906 302.216 134.284 300.889 136.025Z" fill="#FFC3BD"/>
<path d="M296.281 131.33C296.281 131.33 294.91 136.246 292.245 139.398C289.58 142.551 286.951 143.169 284.081 143.114C281.211 143.06 281.649 139.093 281.649 139.093L280.242 138.773C280.242 138.773 280.388 143.656 277.593 141.591C276.983 141.14 276.403 139.701 276.022 138.572C275.73 137.706 275.562 136.807 275.516 135.894C274.837 136.97 274.586 141.755 275.628 144.035C276.359 145.634 278.319 147.011 280.106 147.576C283.091 148.52 287.43 148.474 290.619 147.212C295.725 145.191 296.464 140.293 296.647 137.491C296.83 134.69 297.607 131.328 297.607 131.328H296.281V131.33Z" fill="#263238"/>
<path d="M286.062 129.418C285.962 130.066 285.536 130.551 285.11 130.501C284.684 130.45 284.42 129.884 284.52 129.235C284.62 128.586 285.046 128.102 285.472 128.152C285.898 128.203 286.162 128.77 286.062 129.418Z" fill="#263238"/>
<path d="M278.702 128.543C278.602 129.191 278.176 129.676 277.75 129.625C277.324 129.574 277.06 129.008 277.16 128.359C277.26 127.711 277.686 127.226 278.112 127.276C278.538 127.328 278.802 127.895 278.702 128.543Z" fill="#263238"/>
<path d="M280.945 128.804C280.945 128.804 279.4 131.95 277.871 133.428C278.778 134.398 280.492 134.064 280.492 134.064L280.945 128.804Z" fill="#ED847E"/>
<path d="M280.503 137.264C283.062 137.617 284.713 136.218 284.788 136.153C284.868 136.084 284.877 135.962 284.808 135.882C284.739 135.801 284.617 135.793 284.537 135.862C284.518 135.878 282.64 137.473 279.852 136.742C279.748 136.714 279.644 136.777 279.617 136.88C279.59 136.983 279.652 137.088 279.755 137.115C280.011 137.182 280.261 137.231 280.503 137.264Z" fill="#263238"/>
<path d="M290.24 125.401C290.302 125.387 290.36 125.358 290.411 125.313C290.57 125.172 290.584 124.928 290.443 124.769C289.044 123.196 287.28 123.482 287.206 123.495C287.005 123.51 286.856 123.73 286.892 123.94C286.928 124.15 287.127 124.29 287.336 124.254C287.409 124.243 288.768 124.045 289.866 125.281C289.964 125.389 290.108 125.43 290.24 125.401Z" fill="#263238"/>
<path d="M276.277 123.825C276.395 123.859 276.528 123.836 276.63 123.751C277.977 122.631 279.361 123.002 279.375 123.005C279.58 123.063 279.793 122.943 279.85 122.738C279.907 122.534 279.789 122.322 279.585 122.264L279.583 122.263C279.51 122.243 277.792 121.783 276.138 123.158C275.974 123.294 275.952 123.537 276.088 123.7C276.139 123.763 276.206 123.804 276.277 123.825Z" fill="#263238"/>
<path d="M291.676 208.159L284.174 208.154L287.807 216.153C287.807 216.153 295.195 216.044 294.822 212.239L291.676 208.159Z" fill="#FFC3BD"/>
<path d="M277.013 213.312L280.858 218.505L287.807 216.153L284.173 208.154L277.013 213.312Z" fill="#FFC3BD"/>
<path d="M347.351 360.888H351.004V221.631H347.351V360.888Z" fill="#407BFF"/>
<path d="M368.904 360.888H372.557V221.631H368.904V360.888Z" fill="#407BFF"/>
<path opacity="0.2" d="M368.904 360.888H372.557V221.631H368.904V360.888Z" fill="black"/>
<path d="M139.948 360.888H143.601L143.601 221.631H139.948L139.948 360.888Z" fill="#407BFF"/>
<path opacity="0.2" d="M139.948 221.632H143.601V315.196L139.948 307.032V221.632Z" fill="black"/>
<path d="M118.394 360.888H122.047L122.047 221.631H118.394L118.394 360.888Z" fill="#407BFF"/>
<path d="M118.395 303.091L351.004 303.091V221.632L118.395 221.632V303.091Z" fill="#407BFF"/>
<path d="M116.063 221.632L351.004 221.632V215.687L116.063 215.687V221.632Z" fill="#407BFF"/>
<path d="M372.557 221.632H351.004V303.091H372.557V221.632Z" fill="#407BFF"/>
<path opacity="0.2" d="M372.557 221.632H351.004V303.091H372.557V221.632Z" fill="black"/>
<path d="M374.889 215.686H351.004V221.631H374.889V215.686Z" fill="#407BFF"/>
<path opacity="0.2" d="M374.889 215.686H351.004V221.631H374.889V215.686Z" fill="black"/>
<path opacity="0.2" d="M118.394 225.774L372.557 225.774V221.631L118.394 221.631V225.774Z" fill="black"/>
<path d="M263.877 199.699H177.428C174.137 199.699 171.322 197.006 171.172 193.715L168.887 143.476C168.737 140.185 171.307 137.492 174.598 137.492H261.047C264.338 137.492 267.153 140.185 267.303 143.476L269.588 193.715C269.738 197.007 267.168 199.699 263.877 199.699Z" fill="#407BFF"/>
<path d="M262.716 199.699H176.267C172.976 199.699 170.161 197.006 170.011 193.715L167.726 143.476C167.576 140.185 170.146 137.492 173.437 137.492H259.886C263.177 137.492 265.992 140.185 266.142 143.476L268.427 193.715C268.577 197.007 266.007 199.699 262.716 199.699Z" fill="#407BFF"/>
<path opacity="0.2" d="M262.716 199.699H176.267C172.976 199.699 170.161 197.006 170.011 193.715L167.726 143.476C167.576 140.185 170.146 137.492 173.437 137.492H259.886C263.177 137.492 265.992 140.185 266.142 143.476L268.427 193.715C268.577 197.007 266.007 199.699 262.716 199.699Z" fill="white"/>
<path d="M227.261 169.342H210.75V199.699H227.261V169.342Z" fill="#407BFF"/>
<path d="M210.23 166.1L202.94 215.67H220.8L228.09 166.1H210.23ZM220.72 181.85L219.54 189.86C219.36 191.09 218.31 192 217.07 192H214.38C212.85 192 211.68 190.64 211.9 189.13L213.08 181.12C213.26 179.89 214.31 178.98 215.55 178.98H218.24C219.77 178.98 220.94 180.34 220.72 181.85Z" fill="#407BFF"/>
<path opacity="0.2" d="M210.23 166.1L202.94 215.67H220.8L228.09 166.1H210.23ZM220.72 181.85L219.54 189.86C219.36 191.09 218.31 192 217.07 192H214.38C212.85 192 211.68 190.64 211.9 189.13L213.08 181.12C213.26 179.89 214.31 178.98 215.55 178.98H218.24C219.77 178.98 220.94 180.34 220.72 181.85Z" fill="white"/>
<path d="M230.978 212.051H199.723L195.885 215.686H239.294L230.978 212.051Z" fill="#407BFF"/>
<path opacity="0.2" d="M230.978 212.051H199.723L195.885 215.686H239.294L230.978 212.051Z" fill="white"/>
<path d="M138.661 204.567C136.896 203.601 137.5 193.949 138.274 188.448C139.21 181.797 142.014 170.026 150.907 163.507C155.146 160.399 159.199 157.756 159.909 154.406C161.208 157.38 168.603 178.653 158.059 188.199C149.141 196.272 142.534 194.471 138.661 204.567Z" fill="#407BFF"/>
<g opacity="0.2">
<path d="M138.661 204.567C136.896 203.601 137.5 193.949 138.274 188.448C139.21 181.797 142.014 170.026 150.907 163.507C155.146 160.399 159.199 157.756 159.909 154.406C161.208 157.38 168.603 178.653 158.059 188.199C149.141 196.272 142.534 194.471 138.661 204.567Z" fill="black"/>
</g>
<path d="M140.976 199.109C143.032 197.963 140.682 186.753 138.803 180.369C136.53 172.651 131.069 159.008 118.828 151.548C112.993 147.992 107.469 144.974 106.025 141.089C104.885 144.562 101.233 171.894 116.046 182.85C128.575 192.115 134.448 187.425 140.976 199.109Z" fill="#407BFF"/>
<path d="M139.948 196.606C139.829 196.606 139.719 196.528 139.684 196.407C139.652 196.294 136.332 184.884 128.25 168.994C120.744 154.237 110.664 151.842 110.562 151.82C110.415 151.787 110.322 151.641 110.354 151.493C110.386 151.345 110.528 151.252 110.681 151.285C110.784 151.308 121.106 153.741 128.738 168.746C136.845 184.687 140.177 196.142 140.211 196.256C140.253 196.402 140.169 196.553 140.023 196.595C139.999 196.603 139.974 196.606 139.948 196.606Z" fill="white"/>
<path d="M108.101 161.514C108.034 161.514 107.965 161.489 107.913 161.439C107.804 161.335 107.799 161.162 107.902 161.051C107.961 160.989 113.84 154.918 122.05 158.957C122.186 159.024 122.241 159.188 122.175 159.324C122.108 159.46 121.944 159.515 121.808 159.449C113.968 155.591 108.356 161.369 108.3 161.428C108.246 161.485 108.173 161.514 108.101 161.514Z" fill="white"/>
<path d="M118.671 179.76C118.623 179.76 118.575 179.748 118.531 179.722C118.401 179.645 118.357 179.477 118.434 179.347C118.483 179.263 123.457 171.006 130.757 173.034C130.903 173.075 130.989 173.225 130.948 173.371C130.907 173.517 130.753 173.602 130.61 173.562C123.703 171.65 118.953 179.545 118.906 179.625C118.855 179.712 118.765 179.76 118.671 179.76Z" fill="white"/>
<path d="M126.598 165.744C126.477 165.744 126.365 165.663 126.333 165.54C126.314 165.471 125.888 163.829 126.59 162.701C126.903 162.196 127.389 161.875 128.031 161.747C128.188 161.718 128.325 161.814 128.353 161.962C128.383 162.11 128.287 162.255 128.138 162.285C127.645 162.384 127.29 162.614 127.057 162.989C126.48 163.914 126.859 165.384 126.863 165.399C126.902 165.545 126.815 165.695 126.669 165.734C126.645 165.741 126.621 165.744 126.598 165.744Z" fill="white"/>
<path d="M154.432 193.993H129.116L131.448 215.66H152.101L154.432 193.993Z" fill="#407BFF"/>
<path opacity="0.7" d="M154.432 193.993H129.116L131.448 215.66H152.101L154.432 193.993Z" fill="white"/>
<path d="M355.01 196.026V194.678C355.01 194.077 354.523 193.59 353.922 193.59H340.458C339.857 193.59 339.37 194.077 339.37 194.678V215.686H355.01V213.25C358.415 213.25 361.081 209.467 361.081 204.638C361.081 199.809 358.414 196.026 355.01 196.026ZM355.01 211.057V198.22C357.112 198.22 358.888 201.159 358.888 204.639C358.888 208.117 357.112 211.057 355.01 211.057Z" fill="#407BFF"/>
<path opacity="0.2" d="M355.01 196.026V194.678C355.01 194.077 354.523 193.59 353.922 193.59H340.458C339.857 193.59 339.37 194.077 339.37 194.678V215.686H355.01V213.25C358.415 213.25 361.081 209.467 361.081 204.638C361.081 199.809 358.414 196.026 355.01 196.026ZM355.01 211.057V198.22C357.112 198.22 358.888 201.159 358.888 204.639C358.888 208.117 357.112 211.057 355.01 211.057Z" fill="white"/>
<path opacity="0.3" d="M355.01 198.22H353.23L355.01 203.155V198.22Z" fill="black"/>
<path opacity="0.3" d="M355.01 213.25H353.23L355.01 214.075V213.25Z" fill="black"/>
</svg>
